# xmcd
#
# Track frame offsets:
#	150
#	20672
#	46727
#	79034
#	104176
#	134293
#	159990
#	183345
#	208124
#	240591
#	268133
#
# Disc length: 3898 seconds
#
# Revision: 4
# Processed by: cddbd v1.5.2PL0 Copyright (c) Steve Scherf et al.
# Submitted via: EasyCDDAExtractor 12.0.0.1
#
DISCID=950f380b
DTITLE=Tracy Chapman - New Beginning
DYEAR=1995
DGENRE=Soul
TTITLE0=Give Me One Reason
TTITLE1=Remember The Tinman
TTITLE2=I'm Ready
TTITLE3=New Beginning
TTITLE4=Smoke And Ashes
TTITLE5=Cold Feet
TTITLE6=At The Point In My Life
TTITLE7=The Promise
TTITLE8=The Rape Of The World
TTITLE9=Tell It Like It Is
TTITLE10=Heaven's Here On Earth
EXTD=YEAR: 1995
EXTT0=
EXTT1=
EXTT2=
EXTT3=
EXTT4=
EXTT5=
EXTT6=
EXTT7=
EXTT8=
EXTT9=
EXTT10=
PLAYORDER=
